<?xml version="1.0" encoding="UTF-8" standalone="no"?>
<svg
   id="Layer_1"
   viewBox="0 0 214.8 257.1"
   version="1.1"
   sodipodi:docname="appiconfggeneral.svg"
   inkscape:version="1.1.2 (b8e25be833, 2022-02-05)"
   inkscape:export-filename="C:\Users\jan\Downloads\icon.png"
   inkscape:export-xdpi="191.28491"
   inkscape:export-ydpi="191.28491"
   xmlns:inkscape="http://www.inkscape.org/namespaces/inkscape"
   xmlns:sodipodi="http://sodipodi.sourceforge.net/DTD/sodipodi-0.dtd"
   xmlns="http://www.w3.org/2000/svg"
   xmlns:svg="http://www.w3.org/2000/svg">
  <sodipodi:namedview
     id="namedview35"
     pagecolor="#ffffff"
     bordercolor="#666666"
     borderopacity="1.0"
     inkscape:pageshadow="2"
     inkscape:pageopacity="0.0"
     inkscape:pagecheckerboard="0"
     showgrid="false"
     inkscape:zoom="1.2005138"
     inkscape:cx="6.247325"
     inkscape:cy="137.44115"
     inkscape:window-width="2560"
     inkscape:window-height="1369"
     inkscape:window-x="-2568"
     inkscape:window-y="-8"
     inkscape:window-maximized="1"
     inkscape:current-layer="Layer_1" />
  <defs
     id="defs4">
    <style
       id="style2">.cls-1{fill:#ec691a;}.cls-2{fill:#7d7d7d;}</style>
  </defs>
  <g
     id="g10"
     transform="matrix(0.00580251,0,0,-0.00580251,-9.1145327,254.28118)"
     style="display:inline"
     inkscape:export-filename="C:\Users\Jan\Downloads\icon.png"
     inkscape:export-xdpi="191.28491"
     inkscape:export-ydpi="191.28491">
    <path
       d="m 12748.7,24676.6 c 431.8,638.4 784.7,1327.2 1015.6,2062.5 647.9,2063.3 2580.7,6423.5 7273.3,6036.8 6127.5,-505.1 9676.5,-5049.1 7350.9,-14852.8 C 26062.9,8119.4 18292.7,9477.2 13794.4,11979.4 9504.06,14365.9 9286.01,19557.9 12748.7,24676.6"
       style="display:inline;fill:#efb167;fill-opacity:1;fill-rule:nonzero;stroke:none"
       id="path14-0" />
    <path
       d="m 14909,21990.3 c -928.8,0 -1189.9,1061.6 -210.4,2845.7 164.1,298.8 318.1,603.7 451.2,922.2 191.9,459.4 505,1210.8 921.9,2217.4 540.8,1306.1 1143.6,2119.4 1825.2,2119.4 238.6,0 486.8,-99.5 745.5,-312.5 1171.7,-964.7 -1460.9,-6989.8 -3015,-7628.5 -268.7,-110.4 -510.3,-163.7 -718.4,-163.7"
       style="fill:#f5cc9c;fill-opacity:1;fill-rule:nonzero;stroke:none"
       id="path16" />
    <path
       d="m 13931.5,17223.4 c -119.6,208 136.6,428.3 328.6,284.4 207.2,-155.3 465.8,-295.2 785.8,-388.2 457.4,-132.9 890,-194.7 1250.1,-220.4 240.8,-17.2 289.8,-353 61.1,-430.4 -753.5,-255 -1796.7,-338.8 -2425.6,754.6"
       style="fill:#db8d4d;fill-opacity:1;fill-rule:nonzero;stroke:none"
       id="path18" />
    <path
       d="m 24609.6,23121.8 c -119.7,208 136.5,428.3 328.5,284.4 207.2,-155.2 465.8,-295.2 785.8,-388.2 457.5,-132.9 890.1,-194.7 1250.1,-220.4 240.9,-17.1 289.8,-353 61.1,-430.4 -753.5,-255 -1796.7,-338.8 -2425.5,754.6"
       style="fill:#db8d4d;fill-opacity:1;fill-rule:nonzero;stroke:none"
       id="path20-6" />
    <path
       d="m 25392.8,28497 c 72.3,-228.8 -225.1,-389.1 -381.9,-207.5 -169.1,196.1 -391.7,388.2 -684.4,547.5 -418.4,227.9 -827.7,380.9 -1173.9,483.1 -231.5,68.4 -207.4,406.9 32.6,433.5 790.6,87.7 1827.5,-53.9 2207.6,-1256.6"
       style="fill:#db8d4d;fill-opacity:1;fill-rule:nonzero;stroke:none"
       id="path22-5" />
    <path
       d="m 17765.3,20989.1 c -61.8,130 78.2,272 179.6,183.3 109.5,-95.7 246.7,-181.1 417.5,-236.2 244,-78.8 475.6,-112.9 668.6,-125 129.1,-8.1 151.5,-219.7 27.9,-271.2 -407.4,-169.6 -968.4,-234.4 -1293.6,449.1"
       style="fill:#db8d4d;fill-opacity:1;fill-rule:nonzero;stroke:none"
       id="path24" />
    <path
       d="m 21726.1,17992.1 c -61.8,130 78.2,272.1 179.6,183.4 109.5,-95.7 246.7,-181.2 417.5,-236.3 244,-78.7 475.6,-112.9 668.6,-125 129.1,-8.1 151.5,-219.7 27.9,-271.2 -407.4,-169.6 -968.4,-234.4 -1293.6,449.1"
       style="display:inline;fill:#db8d4d;fill-opacity:1;fill-rule:nonzero;stroke:none"
       id="path26" />
    <path
       d="m 21617.7,28656.9 c 61.8,-130 -78.2,-272.1 -179.7,-183.4 -109.4,95.7 -246.7,181.2 -417.4,236.3 -244.1,78.7 -475.6,112.9 -668.6,125 -129.1,8.1 -151.6,219.7 -27.9,271.1 407.4,169.7 968.4,234.4 1293.6,-449"
       style="display:inline;fill:#db8d4d;fill-opacity:1;fill-rule:nonzero;stroke:none"
       id="path28-1" />
    <path
       d="m 22238,24183.6 c 61.9,-130 -78.1,-272.1 -179.6,-183.4 -109.4,95.7 -246.7,181.2 -417.4,236.3 -244.1,78.7 -475.6,112.9 -668.6,125 -129.1,8.1 -151.6,219.7 -27.9,271.2 407.4,169.6 968.4,234.4 1293.5,-449.1"
       style="display:inline;fill:#db8d4d;fill-opacity:1;fill-rule:nonzero;stroke:none"
       id="path30-7" />
    <path
       d="m 27831.1,18806.5 c -2326,-9804.5 -10096.3,-8446 -14594,-5944.6 -895.7,498.9 -1613.4,1119.1 -2157.6,1835.2 -740.3,1427 -915.1,3136 -544.4,4970.5 385.5,-1463.7 1317.3,-2697.2 2824.8,-3535.2 3949.1,-2195.9 10769.6,-3388.1 12811.4,5216.9 1103.6,4656.2 697.9,7958.1 -759.4,10080.6 774.7,-484.5 1445.3,-1100.9 1993.2,-1855.1 1294.3,-2420.9 1566.9,-5962.5 426,-10768.3"
       style="display:inline;fill:#db8d4d;fill-opacity:1;fill-rule:nonzero;stroke:none"
       id="path32" />
    <path
       d="m 12591.5,24440.4 c 0.3,0.5 0.5,0.8 0.9,1.3 -0.2,-0.3 -0.7,-1 -0.9,-1.3 m 4.2,6.4 c 0.3,0.5 0.5,0.8 0.8,1.3 -0.2,-0.3 -0.6,-1 -0.8,-1.3 m 4.2,6.5 0.2,0.3 -0.2,-0.3 m 7.3,11.1 c 0.2,0.3 0.6,0.9 0.8,1.1 -0.2,-0.3 -0.6,-0.8 -0.8,-1.1 m 3.6,5.4 c 0.5,0.8 1,1.7 1.5,2.4 -0.6,-0.9 -0.9,-1.5 -1.5,-2.4 m 4.3,6.6 c 0.5,0.7 1.2,1.8 1.7,2.6 -0.6,-1 -1.1,-1.7 -1.7,-2.6 m 4.4,6.7 c 0.6,1 1.1,1.6 1.7,2.6 -0.6,-0.9 -1.1,-1.7 -1.7,-2.6 m 5.3,8 c 1.1,1.8 2,3.1 3.2,4.9 -1,-1.6 -2.2,-3.3 -3.2,-4.9 m 5,7.6 c 1,1.5 1.7,2.6 2.7,4.1 -1,-1.5 -1.7,-2.5 -2.7,-4.1 m 4.8,7.3 c 0.8,1.2 1.7,2.6 2.5,3.8 -0.8,-1.2 -1.7,-2.6 -2.5,-3.8 m 4.4,6.6 c 1.1,1.7 2.4,3.6 3.5,5.4 -1.2,-1.9 -2.3,-3.5 -3.5,-5.4 m 4.5,6.8 c 1.5,2.3 3.1,4.7 4.6,7 -1.7,-2.5 -3,-4.5 -4.6,-7 m 5.5,8.4 c 1.2,1.7 2.4,3.6 3.6,5.4 -1.3,-1.9 -2.4,-3.6 -3.6,-5.4 m 5.1,7.7 c 1.2,1.7 2.2,3.3 3.4,5.1 -1.3,-1.9 -2.2,-3.3 -3.4,-5.1 m 4.6,6.9 c 1.3,2 2.8,4.3 4.2,6.3 -1.3,-1.9 -3,-4.5 -4.2,-6.3 m 4.6,6.9 c 1.6,2.5 3.2,4.8 4.9,7.3 -1.7,-2.4 -3.3,-4.8 -4.9,-7.3 m 4.9,7.4 c 1.5,2.3 3.1,4.7 4.6,6.9 -1.4,-2.2 -3.1,-4.7 -4.6,-6.9 m 5.6,8.3 c 1.3,2.1 2.4,3.7 3.7,5.7 -1.2,-1.8 -2.5,-3.8 -3.7,-5.7 m 4.8,7.3 c 1.3,2 2.6,4 4,6 -1.3,-1.9 -2.7,-4.1 -4,-6 m 4.8,7.1 c 3.1,4.8 6.2,9.4 9.4,14.1 -3.2,-4.6 -6.3,-9.4 -9.4,-14.1 m 10.5,15.8 c 1.3,2 2.4,3.6 3.8,5.6 -1.3,-1.8 -2.6,-3.7 -3.8,-5.6 m 4.7,7.1 c 1.6,2.3 2.8,4.2 4.3,6.4 -1.4,-2.1 -2.8,-4.2 -4.3,-6.4 m 4.7,7 c 3.2,4.8 6.4,9.5 9.6,14.3 -3.1,-4.7 -6.5,-9.6 -9.6,-14.3 m 10.8,16.1 c 1.2,1.7 2.3,3.4 3.5,5.2 -1.3,-1.9 -2.3,-3.4 -3.5,-5.2 m 4.8,7.1 c 1.2,1.8 2.6,3.8 3.8,5.6 -1.3,-1.9 -2.5,-3.7 -3.8,-5.6 m 4.7,7.1 c 3.1,4.5 6.4,9.3 9.4,13.9 -3.2,-4.7 -6.2,-9.3 -9.4,-13.9 m 10.8,16 c 1.2,1.7 2.2,3.1 3.4,4.9 -1.1,-1.6 -2.3,-3.4 -3.4,-4.9 m 4.9,7.2 c 1,1.5 2.3,3.4 3.3,4.9 -1,-1.5 -2.2,-3.3 -3.3,-4.9 m 4.7,6.9 c 1.5,2.3 3.1,4.7 4.7,6.9 -1.5,-2.1 -3.3,-4.7 -4.7,-6.9 m 1021.6,2073.6 c 621.9,1978.2 2421.6,6056.7 6694.6,6056.7 18.5,0 36.9,-0.1 55.5,-0.2 -18.6,0.1 -37,0.2 -55.5,0.2 -4272.4,0 -6072.7,-4078.7 -6694.6,-6056.7 m 7333.6,6027.3 c -0.4,0.1 -0.4,0.1 -0.8,0.1 0.2,0 0.6,0 0.8,-0.1 m -8.7,0.8 c -0.3,0 -1.5,0.1 -1.9,0.2 0.6,-0.1 1.4,-0.2 1.9,-0.2 m -8.7,0.7 c -0.8,0.1 -1.8,0.2 -2.5,0.3 0.7,-0.1 1.7,-0.2 2.5,-0.3 m -8.8,0.8 c -1.5,0.1 -2,0.2 -3.5,0.3 1.1,-0.1 2.4,-0.2 3.5,-0.3 m -8.8,0.7 c -1.9,0.2 -3,0.3 -4.8,0.5 1.4,-0.2 3.4,-0.3 4.8,-0.5 m -8.8,0.8 c -1.9,0.1 -4.1,0.3 -5.9,0.5 1.8,-0.2 4.1,-0.4 5.9,-0.5 m -8.9,0.7 c -3,0.3 -5.9,0.5 -8.9,0.8 3,-0.3 6,-0.5 8.9,-0.8"
       style="display:inline;fill:#ffedc8;fill-opacity:1;fill-rule:nonzero;stroke:none"
       id="path34" />
    <path
       d="m 11747.4,13676.6 c -257.4,319.5 -479.1,659.4 -665.1,1016.7 118.6,-155.8 245.5,-307.1 380.6,-453.5 85.1,-192.5 180,-380.4 284.5,-563.2 m -1166.5,2316.8 c -646.84,2440.1 49,5448.2 2010.6,8447 0.2,0.3 0.7,1 0.9,1.3 0.9,1.5 2.3,3.6 3.3,5.1 0.2,0.3 0.6,1 0.8,1.3 1.2,1.7 2.3,3.4 3.4,5.2 l 0.2,0.3 c 2.5,3.7 4.7,7.1 7.1,10.8 0.2,0.3 0.6,0.8 0.8,1.1 0.9,1.5 1.8,2.8 2.8,4.3 0.6,0.9 0.9,1.5 1.5,2.4 1,1.5 1.8,2.7 2.8,4.2 0.6,0.9 1.1,1.6 1.7,2.6 0.8,1.2 1.9,2.8 2.7,4.1 0.6,0.9 1.1,1.7 1.7,2.6 1.2,1.8 2.4,3.7 3.6,5.4 1,1.6 2.2,3.3 3.2,4.9 0.5,0.7 1.3,1.9 1.8,2.7 1,1.6 1.7,2.6 2.7,4.1 0.7,1 1.4,2.1 2.1,3.2 0.8,1.2 1.7,2.6 2.5,3.8 0.7,1 1.2,1.8 1.9,2.8 1.2,1.9 2.3,3.5 3.5,5.4 0.4,0.5 0.6,0.9 1,1.4 1.6,2.5 2.9,4.5 4.6,7 0.3,0.5 0.6,0.9 0.9,1.4 1.2,1.8 2.3,3.5 3.6,5.4 0.5,0.7 1,1.5 1.5,2.3 1.2,1.8 2.1,3.2 3.4,5.1 0.3,0.5 0.8,1.3 1.2,1.8 1.2,1.8 2.9,4.4 4.2,6.3 0.1,0.2 0.2,0.3 0.4,0.6 1.6,2.5 3.2,4.9 4.9,7.3 v 0.1 c 1.5,2.2 3.2,4.7 4.6,6.9 0.4,0.5 0.6,0.9 1,1.4 1.2,1.9 2.5,3.9 3.7,5.7 0.4,0.5 0.8,1.1 1.1,1.6 1.3,1.9 2.7,4.1 4,6 0.1,0.2 0.6,0.9 0.8,1.1 3.1,4.7 6.2,9.5 9.4,14.1 0.3,0.5 0.7,1.2 1.1,1.7 1.2,1.9 2.5,3.8 3.8,5.6 0.1,0.3 0.8,1.3 0.9,1.5 1.5,2.2 2.9,4.3 4.3,6.4 0.2,0.3 0.2,0.3 0.4,0.6 3.1,4.7 6.5,9.6 9.6,14.3 0.3,0.5 0.8,1.2 1.2,1.8 1.2,1.8 2.2,3.3 3.5,5.2 0.5,0.7 0.8,1.2 1.3,1.9 1.3,1.9 2.5,3.7 3.8,5.6 0.3,0.5 0.6,1 0.9,1.5 3.2,4.6 6.2,9.2 9.4,13.9 0.5,0.7 0.9,1.3 1.4,2.1 1.1,1.5 2.3,3.3 3.4,4.9 0.5,0.8 1,1.5 1.5,2.3 1.1,1.6 2.3,3.4 3.3,4.9 0.5,0.8 0.9,1.2 1.4,2 1.4,2.2 3.2,4.8 4.7,6.9 v 0 c 431.8,638.4 784.7,1327.2 1015.6,2062.5 0.5,1.4 0.9,2.8 1.3,4.2 621.9,1978 2422.2,6056.7 6694.6,6056.7 18.5,0 36.9,-0.1 55.5,-0.2 169.8,-1.5 344.4,-9.3 521.9,-23.9 v 0 c 3,-0.3 5.9,-0.5 8.9,-0.8 1.1,-0.1 1.9,-0.1 3,-0.2 1.8,-0.2 4,-0.4 5.9,-0.5 1.5,-0.1 2.5,-0.2 4,-0.3 1.8,-0.2 2.9,-0.3 4.8,-0.5 1.8,-0.1 3.5,-0.2 5.3,-0.4 1.5,-0.1 2,-0.2 3.5,-0.3 2.2,-0.2 4.1,-0.3 6.3,-0.5 0.7,-0.1 1.7,-0.2 2.5,-0.3 2.3,-0.2 4.5,-0.3 6.8,-0.5 0.4,-0.1 1.6,-0.2 1.9,-0.2 2.8,-0.2 5.2,-0.5 7.9,-0.7 0.4,0 0.4,0 0.8,-0.1 2249.4,-195.9 4146.2,-941.4 5528.5,-2294.9 -369.4,361.3 -775.8,679 -1215.8,954.2 158.4,-230.7 304.5,-475.5 437.4,-734.3 -1199.1,723.5 -2640.1,1141.4 -4262.6,1275.1 -197.4,16.3 -389.8,24.2 -577.5,24.2 -4275.4,0 -6075.2,-4084.4 -6695.9,-6060.9 -230.9,-735.4 -583.8,-1424.1 -1015.6,-2062.5 -1245.2,-1840.7 -2013.8,-3690.5 -2288.2,-5416 -204.6,381.9 -362.5,787.3 -474.4,1212.1 -264.1,-1307.4 -251.3,-2551 45.8,-3674.2 m 17214.2,12987.8 c -74.7,95.2 -151.5,188 -230.3,278.5 -51.4,107.1 -104.6,212.1 -159.7,315.1 -18.6,25.7 -37.4,51.2 -56.3,76.5 158.7,-212.2 307.6,-435.5 446.3,-670.1"
       style="display:inline;fill:#f9e0c2;fill-opacity:1;fill-rule:nonzero;stroke:none"
       id="path36" />
    <path
       d="m 11462.9,14239.8 c -135.1,146.4 -262,297.7 -380.6,453.5 -214,411.3 -380.9,845.7 -501.4,1300.1 -297.1,1123.2 -309.9,2366.8 -45.8,3674.2 111.9,-424.8 269.8,-830.2 474.4,-1212.1 -244.1,-1535.1 -97.2,-2971.6 453.4,-4215.7 m 16101.9,15019.9 c -495.7,569.3 -1070.6,1046.7 -1715.5,1435.9 -132.9,258.8 -279,503.6 -437.4,734.3 440,-275.2 846.4,-592.9 1215.8,-954.2 258.7,-253.3 499.5,-528.1 721.1,-824.4 18.9,-25.3 37.7,-50.8 56.3,-76.5 55.1,-103 108.3,-208 159.7,-315.1"
       style="display:inline;fill:#f1d1b8;fill-opacity:1;fill-rule:nonzero;stroke:none"
       id="path38" />
    <path
       d="m 12748.6,24676.6 h 0.5 z m 310.8,-210.1 c -1963.4,-2902.4 -2728.9,-5824.3 -2155.6,-8227.6 400,-1676.4 1462.6,-3035.9 3072.9,-3931.7 1233,-685.8 5545.1,-2796.1 9266.9,-1155.8 2336.4,1029.7 3944.6,3337.2 4779.9,6858.3 1195.9,5041.5 888.8,8856.5 -912.9,11339 -1306.3,1799.9 -3359.9,2827.2 -6103.8,3053.3 -4462.1,367.4 -6300.9,-3916.4 -6884.6,-5775.3 -229,-729.5 -586.6,-1456.3 -1062.8,-2160.2 z M 20184.8,9790.7 c -590.5,0 -1202.6,53 -1834.8,159.1 -1987.5,333.8 -3673.5,1109.7 -4738,1701.7 -1799,1000.8 -2987.8,2526.9 -3437.9,4413.3 -622.77,2610.3 181.2,5743.4 2263.8,8822 435.5,643.7 761.3,1304.7 968.5,1964.6 637.8,2031.1 2660.9,6710.9 7662,6298.3 1435.9,-118.3 2721.1,-453 3820.1,-994.8 1149.3,-566.5 2101.3,-1362.4 2829.3,-2365.6 938.3,-1292.7 1508.7,-2934 1695.5,-4878.3 194.7,-2027.7 -27.3,-4407.9 -659.8,-7074.5 -892.4,-3761.9 -2644.4,-6242.1 -5207.3,-7371.7 -1018.5,-448.9 -2144,-674.1 -3361.4,-674.1"
       style="display:inline;fill:#390175;fill-opacity:1;fill-rule:nonzero;stroke:none"
       id="path40" />
  </g>
</svg>
